<mxfile host="65bd71144e">
    <diagram id="PYEHafJqGA48aZEFrB_9" name="Page-1">
        <mxGraphModel dx="1813" dy="1218" grid="1" gridSize="10" guides="1" tooltips="1" connect="1" arrows="1" fold="1" page="1" pageScale="1" pageWidth="850" pageHeight="1100" math="0" shadow="0">
            <root>
                <mxCell id="0"/>
                <mxCell id="3" value="Untitled Layer" parent="0"/>
                <mxCell id="4" value="" style="endArrow=classic;html=1;sketch=1;curveFitting=1;jiggle=2;strokeWidth=3;" edge="1" parent="3">
                    <mxGeometry width="50" height="50" relative="1" as="geometry">
                        <mxPoint x="10" y="350" as="sourcePoint"/>
                        <mxPoint x="10" y="20" as="targetPoint"/>
                    </mxGeometry>
                </mxCell>
                <mxCell id="5" value="" style="endArrow=classic;html=1;sketch=1;curveFitting=1;jiggle=2;strokeWidth=3;" edge="1" parent="3">
                    <mxGeometry width="50" height="50" relative="1" as="geometry">
                        <mxPoint x="10" y="350" as="sourcePoint"/>
                        <mxPoint x="1230" y="350" as="targetPoint"/>
                    </mxGeometry>
                </mxCell>
                <mxCell id="37" style="edgeStyle=orthogonalEdgeStyle;curved=1;sketch=1;html=1;entryX=0;entryY=0.5;entryDx=0;entryDy=0;strokeWidth=3;fontFamily=Tahoma;fontSize=24;" edge="1" parent="3" source="6" target="8">
                    <mxGeometry relative="1" as="geometry">
                        <Array as="points">
                            <mxPoint x="90" y="146"/>
                        </Array>
                    </mxGeometry>
                </mxCell>
                <mxCell id="6" value="" style="ellipse;whiteSpace=wrap;html=1;aspect=fixed;opacity=50;sketch=1;curveFitting=1;jiggle=2;strokeWidth=4;fillColor=#000000;" vertex="1" parent="3">
                    <mxGeometry x="80" y="170" width="30" height="30" as="geometry"/>
                </mxCell>
                <mxCell id="38" style="edgeStyle=orthogonalEdgeStyle;curved=1;sketch=1;html=1;entryX=0;entryY=0.5;entryDx=0;entryDy=0;strokeWidth=3;fontFamily=Tahoma;fontSize=24;" edge="1" parent="3" source="8" target="9">
                    <mxGeometry relative="1" as="geometry">
                        <Array as="points">
                            <mxPoint x="240" y="79"/>
                        </Array>
                    </mxGeometry>
                </mxCell>
                <mxCell id="8" value="" style="ellipse;whiteSpace=wrap;html=1;aspect=fixed;opacity=50;sketch=1;curveFitting=1;jiggle=2;strokeWidth=4;fillColor=#000000;" vertex="1" parent="3">
                    <mxGeometry x="217" y="131" width="30" height="30" as="geometry"/>
                </mxCell>
                <mxCell id="39" style="edgeStyle=orthogonalEdgeStyle;curved=1;sketch=1;html=1;strokeWidth=3;fontFamily=Tahoma;fontSize=24;" edge="1" parent="3" source="9">
                    <mxGeometry relative="1" as="geometry">
                        <mxPoint x="480" y="30" as="targetPoint"/>
                        <Array as="points">
                            <mxPoint x="362" y="30"/>
                            <mxPoint x="470" y="30"/>
                        </Array>
                    </mxGeometry>
                </mxCell>
                <mxCell id="9" value="" style="ellipse;whiteSpace=wrap;html=1;aspect=fixed;opacity=50;sketch=1;curveFitting=1;jiggle=2;strokeWidth=4;fillColor=#000000;" vertex="1" parent="3">
                    <mxGeometry x="347" y="64" width="30" height="30" as="geometry"/>
                </mxCell>
                <mxCell id="10" value="" style="ellipse;whiteSpace=wrap;html=1;aspect=fixed;opacity=50;sketch=1;curveFitting=1;jiggle=2;strokeWidth=4;fillColor=#000000;" vertex="1" parent="3">
                    <mxGeometry x="484" y="97" width="30" height="30" as="geometry"/>
                </mxCell>
                <mxCell id="11" value="" style="ellipse;whiteSpace=wrap;html=1;aspect=fixed;opacity=50;sketch=1;curveFitting=1;jiggle=2;strokeWidth=4;fillColor=#000000;" vertex="1" parent="3">
                    <mxGeometry x="620" y="124" width="30" height="30" as="geometry"/>
                </mxCell>
                <mxCell id="12" value="" style="ellipse;whiteSpace=wrap;html=1;aspect=fixed;opacity=50;sketch=1;curveFitting=1;jiggle=2;strokeWidth=4;fillColor=#000000;" vertex="1" parent="3">
                    <mxGeometry x="754" y="215" width="30" height="30" as="geometry"/>
                </mxCell>
                <mxCell id="13" value="" style="ellipse;whiteSpace=wrap;html=1;aspect=fixed;opacity=50;sketch=1;curveFitting=1;jiggle=2;strokeWidth=4;fillColor=#000000;" vertex="1" parent="3">
                    <mxGeometry x="887" y="154" width="30" height="30" as="geometry"/>
                </mxCell>
                <mxCell id="14" value="" style="ellipse;whiteSpace=wrap;html=1;aspect=fixed;opacity=50;sketch=1;curveFitting=1;jiggle=2;strokeWidth=4;fillColor=#000000;" vertex="1" parent="3">
                    <mxGeometry x="1019" y="93" width="30" height="30" as="geometry"/>
                </mxCell>
                <mxCell id="15" value="" style="ellipse;whiteSpace=wrap;html=1;aspect=fixed;opacity=50;sketch=1;curveFitting=1;jiggle=2;strokeWidth=4;fillColor=#000000;" vertex="1" parent="3">
                    <mxGeometry x="1155" y="95" width="30" height="30" as="geometry"/>
                </mxCell>
                <mxCell id="16" value="" style="endArrow=none;html=1;sketch=1;strokeWidth=3;exitX=0.5;exitY=1;exitDx=0;exitDy=0;fillColor=#f5f5f5;strokeColor=#666666;" edge="1" parent="3" source="6">
                    <mxGeometry width="50" height="50" relative="1" as="geometry">
                        <mxPoint x="260" y="200" as="sourcePoint"/>
                        <mxPoint x="95" y="380" as="targetPoint"/>
                    </mxGeometry>
                </mxCell>
                <mxCell id="17" value="" style="endArrow=none;html=1;sketch=1;strokeWidth=3;exitX=0.5;exitY=1;exitDx=0;exitDy=0;fillColor=#f5f5f5;strokeColor=#666666;" edge="1" parent="3" source="8">
                    <mxGeometry width="50" height="50" relative="1" as="geometry">
                        <mxPoint x="220" y="180" as="sourcePoint"/>
                        <mxPoint x="230" y="380" as="targetPoint"/>
                    </mxGeometry>
                </mxCell>
                <mxCell id="18" value="" style="endArrow=none;html=1;sketch=1;strokeWidth=3;exitX=0.5;exitY=1;exitDx=0;exitDy=0;fillColor=#f5f5f5;strokeColor=#666666;" edge="1" parent="3">
                    <mxGeometry width="50" height="50" relative="1" as="geometry">
                        <mxPoint x="363" y="93" as="sourcePoint"/>
                        <mxPoint x="365" y="387" as="targetPoint"/>
                    </mxGeometry>
                </mxCell>
                <mxCell id="19" value="" style="endArrow=none;html=1;sketch=1;strokeWidth=3;exitX=0.5;exitY=1;exitDx=0;exitDy=0;fillColor=#f5f5f5;strokeColor=#666666;" edge="1" parent="3">
                    <mxGeometry width="50" height="50" relative="1" as="geometry">
                        <mxPoint x="498.0000000000001" y="126.99999999999994" as="sourcePoint"/>
                        <mxPoint x="500" y="380" as="targetPoint"/>
                    </mxGeometry>
                </mxCell>
                <mxCell id="20" value="" style="endArrow=none;html=1;sketch=1;strokeWidth=3;exitX=0.5;exitY=1;exitDx=0;exitDy=0;fillColor=#f5f5f5;strokeColor=#666666;" edge="1" parent="3">
                    <mxGeometry width="50" height="50" relative="1" as="geometry">
                        <mxPoint x="634" y="153.99999999999994" as="sourcePoint"/>
                        <mxPoint x="633" y="380" as="targetPoint"/>
                    </mxGeometry>
                </mxCell>
                <mxCell id="21" value="" style="endArrow=none;html=1;sketch=1;strokeWidth=3;exitX=0.5;exitY=1;exitDx=0;exitDy=0;fillColor=#f5f5f5;strokeColor=#666666;" edge="1" parent="3">
                    <mxGeometry width="50" height="50" relative="1" as="geometry">
                        <mxPoint x="768" y="246" as="sourcePoint"/>
                        <mxPoint x="767" y="378" as="targetPoint"/>
                    </mxGeometry>
                </mxCell>
                <mxCell id="22" value="" style="endArrow=none;html=1;sketch=1;strokeWidth=3;exitX=0.5;exitY=1;exitDx=0;exitDy=0;fillColor=#f5f5f5;strokeColor=#666666;" edge="1" parent="3">
                    <mxGeometry width="50" height="50" relative="1" as="geometry">
                        <mxPoint x="900" y="189" as="sourcePoint"/>
                        <mxPoint x="902" y="389" as="targetPoint"/>
                    </mxGeometry>
                </mxCell>
                <mxCell id="23" value="" style="endArrow=none;html=1;sketch=1;strokeWidth=3;exitX=0.5;exitY=1;exitDx=0;exitDy=0;fillColor=#f5f5f5;strokeColor=#666666;" edge="1" parent="3">
                    <mxGeometry width="50" height="50" relative="1" as="geometry">
                        <mxPoint x="1035" y="125" as="sourcePoint"/>
                        <mxPoint x="1035" y="386" as="targetPoint"/>
                    </mxGeometry>
                </mxCell>
                <mxCell id="24" value="" style="endArrow=none;html=1;sketch=1;strokeWidth=3;exitX=0.5;exitY=1;exitDx=0;exitDy=0;fillColor=#f5f5f5;strokeColor=#666666;" edge="1" parent="3">
                    <mxGeometry width="50" height="50" relative="1" as="geometry">
                        <mxPoint x="1168" y="121" as="sourcePoint"/>
                        <mxPoint x="1168" y="382" as="targetPoint"/>
                    </mxGeometry>
                </mxCell>
                <mxCell id="25" value="state change" style="text;html=1;strokeColor=none;fillColor=none;align=center;verticalAlign=middle;whiteSpace=wrap;rounded=0;sketch=1;strokeWidth=4;opacity=50;fontFamily=Tahoma;fontSize=28;" vertex="1" parent="3">
                    <mxGeometry x="15" y="80" width="205" height="30" as="geometry"/>
                </mxCell>
                <mxCell id="26" value="&lt;font style=&quot;font-size: 20px;&quot;&gt;initial state&lt;/font&gt;" style="text;html=1;strokeColor=none;fillColor=none;align=center;verticalAlign=middle;whiteSpace=wrap;rounded=0;sketch=1;strokeWidth=4;opacity=50;fontFamily=Tahoma;fontSize=28;" vertex="1" parent="3">
                    <mxGeometry x="60" y="200" width="205" height="30" as="geometry"/>
                </mxCell>
                <mxCell id="28" value="&lt;font style=&quot;font-size: 20px;&quot;&gt;state at first time&lt;/font&gt;" style="text;html=1;strokeColor=none;fillColor=none;align=center;verticalAlign=middle;whiteSpace=wrap;rounded=0;sketch=1;strokeWidth=4;opacity=50;fontFamily=Tahoma;fontSize=28;spacingBottom=0;" vertex="1" parent="3">
                    <mxGeometry x="240" y="161" width="100" height="39" as="geometry"/>
                </mxCell>
                <mxCell id="29" value="&lt;font style=&quot;font-size: 20px;&quot;&gt;t&lt;sub&gt;0&lt;/sub&gt;&lt;/font&gt;" style="text;html=1;strokeColor=none;fillColor=none;align=center;verticalAlign=middle;whiteSpace=wrap;rounded=0;sketch=1;strokeWidth=4;opacity=50;fontFamily=Tahoma;fontSize=28;" vertex="1" parent="3">
                    <mxGeometry x="60" y="370" width="100" height="30" as="geometry"/>
                </mxCell>
                <mxCell id="30" value="&lt;font style=&quot;border-color: var(--border-color); font-size: 20px;&quot;&gt;t&lt;/font&gt;&lt;font style=&quot;border-color: var(--border-color); font-size: 16.6667px;&quot;&gt;&lt;sub style=&quot;border-color: var(--border-color);&quot;&gt;1&lt;/sub&gt;&lt;/font&gt;" style="text;html=1;strokeColor=none;fillColor=none;align=center;verticalAlign=middle;whiteSpace=wrap;rounded=0;sketch=1;strokeWidth=4;opacity=50;fontFamily=Tahoma;fontSize=28;" vertex="1" parent="3">
                    <mxGeometry x="200" y="370" width="100" height="30" as="geometry"/>
                </mxCell>
                <mxCell id="31" value="&lt;font style=&quot;border-color: var(--border-color); font-size: 20px;&quot;&gt;t&lt;/font&gt;&lt;font style=&quot;border-color: var(--border-color); font-size: 13.8889px;&quot;&gt;&lt;sub&gt;2&lt;/sub&gt;&lt;/font&gt;" style="text;html=1;strokeColor=none;fillColor=none;align=center;verticalAlign=middle;whiteSpace=wrap;rounded=0;sketch=1;strokeWidth=4;opacity=50;fontFamily=Tahoma;fontSize=28;" vertex="1" parent="3">
                    <mxGeometry x="330" y="370" width="100" height="30" as="geometry"/>
                </mxCell>
                <mxCell id="32" value="&lt;font style=&quot;border-color: var(--border-color); font-size: 20px;&quot;&gt;t&lt;/font&gt;&lt;font style=&quot;border-color: var(--border-color); font-size: 11.5741px;&quot;&gt;3&lt;/font&gt;" style="text;html=1;strokeColor=none;fillColor=none;align=center;verticalAlign=middle;whiteSpace=wrap;rounded=0;sketch=1;strokeWidth=4;opacity=50;fontFamily=Tahoma;fontSize=28;" vertex="1" parent="3">
                    <mxGeometry x="470" y="370" width="100" height="30" as="geometry"/>
                </mxCell>
                <mxCell id="33" value="&lt;span style=&quot;font-size: 20px;&quot;&gt;...&lt;/span&gt;" style="text;html=1;strokeColor=none;fillColor=none;align=center;verticalAlign=middle;whiteSpace=wrap;rounded=0;sketch=1;strokeWidth=4;opacity=50;fontFamily=Tahoma;fontSize=28;" vertex="1" parent="3">
                    <mxGeometry x="630" y="370" width="100" height="30" as="geometry"/>
                </mxCell>
                <mxCell id="34" value="&lt;font style=&quot;border-color: var(--border-color); font-size: 20px;&quot;&gt;t&lt;/font&gt;&lt;font style=&quot;border-color: var(--border-color); font-size: 11.5741px;&quot;&gt;n&lt;/font&gt;" style="text;html=1;strokeColor=none;fillColor=none;align=center;verticalAlign=middle;whiteSpace=wrap;rounded=0;sketch=1;strokeWidth=4;opacity=50;fontFamily=Tahoma;fontSize=28;" vertex="1" parent="3">
                    <mxGeometry x="1110" y="370" width="100" height="30" as="geometry"/>
                </mxCell>
                <mxCell id="35" value="&lt;font style=&quot;font-size: 24px;&quot;&gt;T&lt;/font&gt;" style="text;html=1;strokeColor=none;fillColor=none;align=center;verticalAlign=middle;whiteSpace=wrap;rounded=0;sketch=1;strokeWidth=4;opacity=50;fontFamily=Tahoma;fontSize=28;" vertex="1" parent="3">
                    <mxGeometry x="1200" y="370" width="100" height="30" as="geometry"/>
                </mxCell>
                <mxCell id="40" value="&lt;span style=&quot;font-size: 20px;&quot;&gt;...&lt;/span&gt;" style="text;html=1;strokeColor=none;fillColor=none;align=center;verticalAlign=middle;whiteSpace=wrap;rounded=0;sketch=1;strokeWidth=4;opacity=50;fontFamily=Tahoma;fontSize=28;" vertex="1" parent="3">
                    <mxGeometry x="449" y="20" width="100" height="30" as="geometry"/>
                </mxCell>
            </root>
        </mxGraphModel>
    </diagram>
</mxfile>